<!--?xml version="1.0" encoding="utf-8"?-->
<!-- Generator: Adobe Illustrator 22.1.0, SVG Export Plug-In . SVG Version: 6.00 Build 0)  -->
<svg version="1.1" id="Layer_1" xmlns="http://www.w3.org/2000/svg" xmlns:xlink="http://www.w3.org/1999/xlink" x="0px" y="0px" viewBox="0 0 220 75" shape-rendering="auto" style="color: #F3F3F3;" xml:space="preserve" class="">
<style type="text/css">
	.st0{
	fill:none;
	stroke:#313131;
	stroke-width:1.5;
	stroke-linecap:round;
	stroke-linejoin:round;
	stroke-miterlimit:10;
	}
</style>
<path class="st0 curtis" d="M56.4,26.5c1.1-1.9,3-3.2,4.8-4.4c5.4-3.6,11-7.1,16.7-10.4c3-1.7,6.1-3.5,8.6-5.9c0.3-0.3,0.7-0.7,0.6-1.2
	c-0.1-0.8-1.3-0.8-2.1-0.5c-7.5,2.3-14.5,5.9-21.4,9.4c-10.7,5.5-21.6,11-30.8,18.7c-2.9,2.5-5.7,5.1-7.8,8.4
	c-0.3,0.4-0.5,0.9-0.5,1.4c0.1,1.3,1.9,1.6,3.2,1.4c12.8-1.7,24.2-9.7,37-11.1c-1.1,0.5-2,1.3-2.7,2.3c2.1-0.4,4-1.3,5.9-2.2
	C76.1,28.7,84,24.2,91.5,19c2.1-1.5,4.3-3.1,6.9-3.7c-9.9,6.5-19.9,12.8-30,19c4,0.1,7.7-1.7,11.3-3.4c-0.6,0.8-1.1,1.5-1.7,2.3
	c2.4-0.3,4.9-0.2,7.3,0.2"></path>
<path class="st0 curtis_highlight" d="M56.4,26.5c1.1-1.9,3-3.2,4.8-4.4c5.4-3.6,11-7.1,16.7-10.4c3-1.7,6.1-3.5,8.6-5.9c0.3-0.3,0.7-0.7,0.6-1.2
	c-0.1-0.8-1.3-0.8-2.1-0.5c-7.5,2.3-14.5,5.9-21.4,9.4c-10.7,5.5-21.6,11-30.8,18.7c-2.9,2.5-5.7,5.1-7.8,8.4
	c-0.3,0.4-0.5,0.9-0.5,1.4c0.1,1.3,1.9,1.6,3.2,1.4c12.8-1.7,24.2-9.7,37-11.1c-1.1,0.5-2,1.3-2.7,2.3c2.1-0.4,4-1.3,5.9-2.2
	C76.1,28.7,84,24.2,91.5,19c2.1-1.5,4.3-3.1,6.9-3.7c-9.9,6.5-19.9,12.8-30,19c4,0.1,7.7-1.7,11.3-3.4c-0.6,0.8-1.1,1.5-1.7,2.3
	c2.4-0.3,4.9-0.2,7.3,0.2"></path>
<path class="st0 t_cross" d="M64.6,26.5c1.4-0.2,2.7-0.4,4.1-0.6c10.5-1.6,21.1-3.2,31.8-2.7"></path>
<path class="st0 t_cross_highlight" d="M64.6,26.5c1.4-0.2,2.7-0.4,4.1-0.6c10.5-1.6,21.1-3.2,31.8-2.7"></path>
<path class="st0 hoffman" d="M134.3,9.9c-20.6,11-40.1,24-58.1,38.9c14.3-5.2,25.4-16.6,38.7-24.1c6.1-3.4,12.7-6,19.2-8.6
	c-13.5,7.3-25.1,17.6-36.6,27.9c0.9-1.8,1.4-3.8,1.3-5.8c-0.1-1.4-0.4-3,0.6-4c0.4-0.4,1-0.7,1.6-0.9c3.3-1.3,6.8-2.2,10.3-2.8
	c-1.2,1.5-2,3.2-2.4,5.1c2.6,0.7,5.5-0.2,7.3-2.2c0.4-0.5,0.8-1,1.2-1.4c0.9-1,2.2-1.5,3.4-2.1c8.3-3.7,16.7-7.5,25-11.2
	c-6.4,4.1-12.7,8.4-19,12.7c-4.4,3-8.7,6-12.7,9.5c-3.7,3.3-7.1,7.1-10.4,10.8c-1.8,2-3.5,4-5.3,6c-2.9,3.3-6,7.1-5.6,11.4
	c0,0.5,0.1,0.9,0.4,1.3c0.5,0.7,1.4,0.8,2.3,0.8c5.3,0,10.5-2.3,14.6-5.6c4.1-3.4,7.3-7.8,9.8-12.4c3.4-6,5.9-12.6,7.4-19.3
	c0.2-0.9,0.4-1.8,1-2.4c0.7-0.7,1.6-0.9,2.5-1.1c3.9-0.9,10.1-5,10.1-5c4.6-3.1,9.6-5.4,14.9-6.9c-10.8,5.1-20,13.2-28.9,21.1
	c-7,6.1-14,12.3-19.8,19.6c-1.5,1.8-2.9,3.8-3.8,6c-0.7,1.6-1,3.7,0.3,4.8c0.6,0.5,1.3,0.7,2.1,0.8c2.4,0.2,4.7-0.6,6.8-1.6
	c15.6-7.2,25.8-23.5,28.4-40.5c3-1.5,6.2-2.5,9.5-3c-1.8,2.1-3.8,4-5.8,5.8c1.7-0.6,3.3-1.2,5-1.8c0,0.3-0.1,0.5-0.1,0.8
	c13.8,0.1,43.1-0.6,56.9-0.5"></path>
<path class="st0 hoffman_highlight" d="M134.3,9.9c-20.6,11-40.1,24-58.1,38.9c14.3-5.2,25.4-16.6,38.7-24.1c6.1-3.4,12.7-6,19.2-8.6
	c-13.5,7.3-25.1,17.6-36.6,27.9c0.9-1.8,1.4-3.8,1.3-5.8c-0.1-1.4-0.4-3,0.6-4c0.4-0.4,1-0.7,1.6-0.9c3.3-1.3,6.8-2.2,10.3-2.8
	c-1.2,1.5-2,3.2-2.4,5.1c2.6,0.7,5.5-0.2,7.3-2.2c0.4-0.5,0.8-1,1.2-1.4c0.9-1,2.2-1.5,3.4-2.1c8.3-3.7,16.7-7.5,25-11.2
	c-6.4,4.1-12.7,8.4-19,12.7c-4.4,3-8.7,6-12.7,9.5c-3.7,3.3-7.1,7.1-10.4,10.8c-1.8,2-3.5,4-5.3,6c-2.9,3.3-6,7.1-5.6,11.4
	c0,0.5,0.1,0.9,0.4,1.3c0.5,0.7,1.4,0.8,2.3,0.8c5.3,0,10.5-2.3,14.6-5.6c4.1-3.4,7.3-7.8,9.8-12.4c3.4-6,5.9-12.6,7.4-19.3
	c0.2-0.9,0.4-1.8,1-2.4c0.7-0.7,1.6-0.9,2.5-1.1c3.9-0.9,10.1-5,10.1-5c4.6-3.1,9.6-5.4,14.9-6.9c-10.8,5.1-20,13.2-28.9,21.1
	c-7,6.1-14,12.3-19.8,19.6c-1.5,1.8-2.9,3.8-3.8,6c-0.7,1.6-1,3.7,0.3,4.8c0.6,0.5,1.3,0.7,2.1,0.8c2.4,0.2,4.7-0.6,6.8-1.6
	c15.6-7.2,25.8-23.5,28.4-40.5c3-1.5,6.2-2.5,9.5-3c-1.8,2.1-3.8,4-5.8,5.8c1.7-0.6,3.3-1.2,5-1.8c0,0.3-0.1,0.5-0.1,0.8
	c13.8,0.1,43.1-0.6,56.9-0.5"></path>
<style data-made-with="vivus-instant">
	.curtis{
	stroke-dasharray:259 261;
	stroke-dashoffset:260;
	animation:animate_curtis 3000ms ease-in-out 0ms forwards;
	}

	.curtis_highlight{
	stroke-width:1.6;
	stroke:#F3F3F3;
	opacity: 0.5;
	stroke-dasharray:50 1000;
	stroke-dashoffset:50;
	animation:animate_curtis_highlight 6000ms ease-in-out 0ms forwards infinite;
	}

	.t_cross{
	stroke-dasharray:37 39;
	stroke-dashoffset:38;
	animation:animate_t 3000ms ease-in-out 900ms forwards;
	}

	.t_cross_highlight{
		stroke-width:1.6;
			stroke:#F3F3F3;
		opacity: 0.5;
	stroke-dasharray:50 1000;
	stroke-dashoffset:50;
	animation:animate_t_highlight 6000ms ease-in-out 900ms forwards infinite;
	}

	.hoffman{
	stroke-dasharray:636 638;
	stroke-dashoffset:637;
	animation:animate_hoffman 3000ms ease-in-out 1200ms forwards;
	}

	.hoffman_highlight{
		stroke-width:1.6;
	stroke:#F3F3F3;
	opacity: 0.5;
	stroke-dasharray:50 1000;
	stroke-dashoffset:50;
	animation:animate_hoffman_highlight 6000ms ease-in-out 1200ms forwards infinite;
	}
	
	@keyframes animate_curtis{
	30%{
	stroke-dashoffset:0;
	}
		100%{
			stroke-dashoffset:0;
		}
	}

	@keyframes animate_curtis_highlight{
	30%{
	stroke-dashoffset:-270;
	}
		100%{
			stroke-dashoffset:-270;
		}
	}

	@keyframes animate_t{
	5%{
	stroke-dashoffset:0;
	}
		100%{
			stroke-dashoffset:0;
		}
	}

	@keyframes animate_t_highlight{
	10%{
	stroke-dashoffset:-40;
	}
		100%{
			stroke-dashoffset:-40;
		}
	}

	@keyframes animate_hoffman{
	70%{
	stroke-dashoffset:0;
	}
		100%{
			stroke-dashoffset:0;
		}
	}

	@keyframes animate_hoffman_highlight{
			50%{
	stroke-dashoffset:-640;
	}
		100%{
			stroke-dashoffset:-640;
		}
	}

	@keyframes animate_draw{
	100%{
	stroke-dashoffset:0;
	}
	}

	@keyframes animate_fade{
		50%{
	stroke-dashoffset:0;
	opacity: 1;
	}
		100%{
			stroke-dashoffset:0;
			opacity: 0.5;
		}
	}

@keyframes kaboom {
  90% {
    transform: scale(1.0);
  }
  100% {
    transform: scale(1.1);
  }
}

	</style></svg>
